<svg width="149" height="72" viewBox="0 0 149 72" fill="none" xmlns="http://www.w3.org/2000/svg">
<path d="M25.9717 28.6241L30.2401 24.3557L34.5085 28.6241L30.2401 32.8925L25.9717 28.6241ZM19.2713 60.0165C25.1941 60.0165 28.1555 57.3281 28.1555 51.9513V38.6994V37.7068H29.1482L33.4662 37.682H34.4588V38.6746V51.9513C34.4588 56.4513 33.1436 59.9586 30.5131 62.4733C27.8825 65.0046 24.1518 66.2868 19.321 66.3198L17.559 66.3447L16.5415 66.3695V65.352V61.0092V60.0165H17.5342H19.2713ZM59.3991 54.7059H56.8678C56.6362 58.3456 55.1803 61.1829 52.5002 63.2178C49.8366 65.2693 46.1886 66.295 41.5562 66.295H39.7199H38.7272V65.3024V60.9347V59.9421H39.7199H41.4074C47.0654 59.9421 50.1344 58.1967 50.6142 54.7059H47.661C44.5507 54.7059 42.1684 53.9035 40.514 52.2987C38.8596 50.6774 38.0324 48.3447 38.0324 45.3005C38.0324 43.8116 38.2309 42.4384 38.6279 41.1811C39.0415 39.9072 39.6371 38.7904 40.4147 37.8309C41.2088 36.8548 42.218 36.0937 43.4423 35.5478C44.6831 35.0018 46.0811 34.7289 47.6362 34.7289C50.5314 34.7289 52.798 35.6719 54.4358 37.5579C56.0737 39.4439 56.8926 41.9504 56.8926 45.0772V48.2537H59.3991C59.5811 48.2537 59.73 48.6011 59.8458 49.2959C59.9616 49.9908 60.0195 50.6608 60.0195 51.3061V51.579C60.0195 52.2573 59.9616 52.9522 59.8458 53.6636C59.7465 54.3584 59.5976 54.7059 59.3991 54.7059ZM44.1619 45.2013C44.1619 46.2932 44.4184 47.079 44.9312 47.5588C45.4607 48.022 46.3623 48.2537 47.6362 48.2537H50.7134V45.0524C50.7134 42.3391 49.6546 40.9825 47.5369 40.9825C45.2869 40.9825 44.1619 42.3888 44.1619 45.2013ZM66.2732 62.92L70.4423 58.7261L74.6362 62.92C74.5369 63.0193 74.4377 63.1268 74.3384 63.2426C74.1233 63.4577 73.5443 64.0285 72.6013 64.955C71.6583 65.898 70.9386 66.6176 70.4423 67.114L66.2732 62.92ZM57.2897 62.92L61.4836 58.7261L65.6528 62.92L61.4836 67.114L57.2897 62.92ZM81.1877 54.7059H80.6665C77.457 54.7059 75.0581 53.7794 73.4698 51.9265C71.6169 53.7794 68.8458 54.7059 65.1564 54.7059H59.1757C58.9772 54.7059 58.8283 54.3584 58.729 53.6636C58.6132 52.9522 58.5553 52.2573 58.5553 51.579V51.3061C58.5553 50.6608 58.6132 49.9908 58.729 49.2959C58.8449 48.6011 58.9937 48.2537 59.1757 48.2537H65.2805C67.1665 48.2537 68.4653 47.9559 69.1767 47.3603C69.9046 46.7647 70.2686 45.7803 70.2686 44.4072V38.0046V37.0119H71.2612H75.5048H76.4974V38.0046V44.4072C76.4974 45.8465 76.7787 46.8474 77.3412 47.4099C77.9202 47.9724 79.0204 48.2537 80.6417 48.2537H81.1877C81.3697 48.2537 81.5186 48.6011 81.6344 49.2959C81.7502 49.9908 81.8081 50.6608 81.8081 51.3061V51.579C81.8081 52.2573 81.7502 52.9522 81.6344 53.6636C81.5351 54.3584 81.3862 54.7059 81.1877 54.7059ZM80.9395 48.2537H85.9772C87.5323 48.2537 88.5912 48.0055 89.1537 47.5092C89.7162 47.0129 89.9974 45.9954 89.9974 44.4568V37.1608V36.1682H90.9901H95.3081H96.3007V37.1608V44.4816C96.3007 47.7904 95.4156 50.3217 93.6454 52.0754C91.8752 53.829 89.3108 54.7059 85.9524 54.7059H80.9395C80.741 54.7059 80.5921 54.3584 80.4928 53.6636C80.377 52.9522 80.3191 52.2573 80.3191 51.579V51.3061C80.3191 50.6608 80.377 49.9908 80.4928 49.2959C80.6086 48.6011 80.7575 48.2537 80.9395 48.2537ZM87.3173 28.2518L91.5857 23.9834L95.854 28.2518L91.5857 32.5202L87.3173 28.2518Z" fill="#FF033E"/>
<path d="M120.745 54.7059H118.213C117.982 58.3456 116.526 61.1829 113.846 63.2178C111.182 65.2693 107.534 66.295 102.902 66.295H101.065H100.073V65.3024V60.9347V59.9421H101.065H102.753C108.411 59.9421 111.48 58.1967 111.96 54.7059H109.007C105.896 54.7059 103.514 53.9035 101.86 52.2987C100.205 50.6774 99.3779 48.3447 99.3779 45.3005C99.3779 43.8116 99.5765 42.4384 99.9735 41.1811C100.387 39.9072 100.983 38.7904 101.76 37.8309C102.554 36.8548 103.564 36.0937 104.788 35.5478C106.029 35.0018 107.427 34.7289 108.982 34.7289C111.877 34.7289 114.144 35.6719 115.781 37.5579C117.419 39.4439 118.238 41.9504 118.238 45.0772V48.2537H120.745C120.927 48.2537 121.076 48.6011 121.191 49.2959C121.307 49.9908 121.365 50.6608 121.365 51.3061V51.579C121.365 52.2573 121.307 52.9522 121.191 53.6636C121.092 54.3584 120.943 54.7059 120.745 54.7059ZM105.508 45.2013C105.508 46.2932 105.764 47.079 106.277 47.5588C106.806 48.022 107.708 48.2537 108.982 48.2537H112.059V45.0524C112.059 42.3391 111 40.9825 108.883 40.9825C106.633 40.9825 105.508 42.3888 105.508 45.2013ZM120.472 48.2537H122.978C123.656 48.2537 124.178 48.204 124.542 48.1048C124.906 47.989 125.129 47.8649 125.212 47.7325C125.294 47.6002 125.344 47.4182 125.36 47.1866C125.41 46.4586 125.435 45.5322 125.435 44.4072C125.435 40.9991 126.229 38.3851 127.817 36.5652C129.422 34.7454 131.68 33.8355 134.592 33.8355C137.669 33.8355 139.994 34.7371 141.565 36.5404C143.154 38.3437 143.948 40.9825 143.948 44.4568C143.948 47.7822 143.137 50.3796 141.516 52.2491C139.894 54.1186 137.587 55.0533 134.592 55.0533C132.061 55.0533 129.993 54.375 128.388 53.0184C127.098 54.1434 125.311 54.7059 123.028 54.7059H120.472C120.273 54.7059 120.124 54.3584 120.025 53.6636C119.909 52.9522 119.851 52.2573 119.851 51.579V51.3061C119.851 50.6608 119.909 49.9908 120.025 49.2959C120.141 48.6011 120.29 48.2537 120.472 48.2537ZM132.334 47.7573C132.847 48.4191 133.616 48.75 134.642 48.75C135.667 48.75 136.437 48.4191 136.95 47.7573C137.462 47.079 137.719 45.9458 137.719 44.3575C137.719 42.8355 137.471 41.7684 136.974 41.1562C136.495 40.5441 135.709 40.238 134.617 40.238C133.558 40.238 132.781 40.5441 132.284 41.1562C131.804 41.7684 131.565 42.8355 131.565 44.3575C131.565 45.9458 131.821 47.079 132.334 47.7573Z" fill="#262837"/>
<path d="M2.86459 33.8824C1.2826 33.8824 0.000137329 32.6182 0.000137329 31.0588C0.000137329 21.9466 3.09408 14.1337 8.71635 8.5917C14.3386 3.04973 22.2648 0 31.5091 0C33.0911 0 34.3735 1.26414 34.3735 2.82353C34.3735 4.38292 33.0911 5.64706 31.5091 5.64706C23.5667 5.64706 17.1706 8.24438 12.7673 12.5848C8.36401 16.9252 5.72904 23.2299 5.72904 31.0588C5.72904 32.6182 4.44658 33.8824 2.86459 33.8824Z" fill="#262837"/>
<path d="M14.3224 33.8824C12.7404 33.8824 11.4579 32.6182 11.4579 31.0588C11.4579 19.6171 19.9015 11.2941 31.5091 11.2941C33.0911 11.2941 34.3735 12.5583 34.3735 14.1176C34.3735 15.677 33.0911 16.9412 31.5091 16.9412C23.0655 16.9412 17.1868 22.7359 17.1868 31.0588C17.1868 32.6182 15.9044 33.8824 14.3224 33.8824Z" fill="#262837"/>
</svg>
