<svg width="424" height="907" viewBox="0 0 424 907" fill="none" xmlns="http://www.w3.org/2000/svg">
<g opacity="0.15">
<g opacity="0.83">
<path d="M-1.64795 0.0848318C-2.18346 0.0379806 -2.65556 0.434119 -2.70241 0.969631C-2.97618 4.09886 -2.1636 6.87354 -0.426941 8.94321C1.30972 11.0129 3.90114 12.2949 7.03037 12.5687C7.56588 12.6156 8.03798 12.2194 8.08483 11.6839C8.13168 11.1484 7.73555 10.6763 7.20003 10.6294C4.51149 10.3942 2.42442 9.31286 1.06429 7.69192C-0.295838 6.07098 -0.998365 3.82784 -0.763148 1.13929C-0.716297 0.603782 -1.11243 0.131683 -1.64795 0.0848318Z" fill="#E2063C"/>
<path d="M2.23057 0.424158C1.69506 0.377307 1.22296 0.773445 1.17611 1.30896C0.832349 5.23817 3.44048 8.34642 7.3697 8.69018C7.90521 8.73704 8.37731 8.3409 8.42416 7.80539C8.47101 7.26988 8.07487 6.79778 7.53936 6.75093C4.68117 6.50087 2.86531 4.33681 3.11537 1.47862C3.16222 0.943108 2.76608 0.471009 2.23057 0.424158Z" fill="#E2063C"/>
</g>
<g opacity="0.8">
<path d="M38.5041 248.428C39.1344 248.633 39.8114 248.288 40.0162 247.657C41.2129 243.974 41.0063 240.416 39.4941 237.448C37.9819 234.48 35.2244 232.221 31.5413 231.024C30.911 230.82 30.234 231.164 30.0292 231.795C29.8244 232.425 30.1693 233.102 30.7997 233.307C33.9641 234.335 36.1714 236.213 37.3557 238.537C38.54 240.862 38.7619 243.751 37.7337 246.916C37.5289 247.546 37.8738 248.223 38.5041 248.428Z" fill="#E2063C"/>
<path d="M33.9391 246.944C34.5694 247.149 35.2463 246.804 35.4511 246.174C36.9538 241.549 34.6828 237.092 30.058 235.589C29.4277 235.385 28.7507 235.73 28.5459 236.36C28.3411 236.99 28.6861 237.667 29.3164 237.872C32.6805 238.965 34.2617 242.068 33.1686 245.432C32.9638 246.063 33.3088 246.74 33.9391 246.944Z" fill="#E2063C"/>
</g>
<g opacity="0.89">
<path d="M43.2112 179.697C43.7303 180.338 44.6706 180.437 45.3116 179.918C49.0569 176.885 51.2531 173.031 51.6864 168.908C52.1197 164.786 50.7728 160.559 47.7398 156.814C47.2208 156.173 46.2805 156.074 45.6395 156.593C44.9986 157.112 44.8997 158.053 45.4188 158.694C48.0245 161.912 49.0555 165.367 48.7161 168.596C48.3768 171.825 46.6499 174.991 43.432 177.597C42.791 178.116 42.6922 179.056 43.2112 179.697Z" fill="#E2063C"/>
<path d="M39.4521 175.055C39.9711 175.696 40.9115 175.795 41.5524 175.275C46.2552 171.467 46.906 165.276 43.0977 160.573C42.5787 159.932 41.6383 159.833 40.9974 160.352C40.3564 160.871 40.2576 161.812 40.7766 162.453C43.5468 165.874 43.0938 170.184 39.6728 172.954C39.0319 173.473 38.9331 174.414 39.4521 175.055Z" fill="#E2063C"/>
</g>
<g opacity="0.91">
<path d="M61.8069 88.7945C61.3221 88.8284 60.9565 89.2489 60.9904 89.7337C61.1885 92.5668 62.3066 94.9296 64.1501 96.5321C65.9936 98.1347 68.489 98.913 71.3221 98.7149C71.8069 98.681 72.1725 98.2605 72.1386 97.7757C72.1047 97.2909 71.6842 96.9253 71.1993 96.9592C68.7652 97.1294 66.7486 96.459 65.3048 95.2039C63.8609 93.9488 62.9164 92.045 62.7461 89.611C62.7122 89.1261 62.2917 88.7606 61.8069 88.7945Z" fill="#E2063C"/>
<path d="M65.3183 88.549C64.8335 88.5829 64.468 89.0034 64.5019 89.4882C64.7506 93.0455 67.5192 95.4522 71.0766 95.2035C71.5614 95.1696 71.9269 94.7491 71.893 94.2643C71.8591 93.7794 71.4386 93.4139 70.9538 93.4478C68.3661 93.6287 66.4385 91.9531 66.2576 89.3654C66.2237 88.8806 65.8032 88.5151 65.3183 88.549Z" fill="#E2063C"/>
</g>
<g opacity="0.79">
<path d="M76.0734 212.663C75.8635 213.093 76.0422 213.612 76.4724 213.822C78.9863 215.048 81.5521 215.258 83.8267 214.475C86.1013 213.691 87.9939 211.946 89.22 209.432C89.4299 209.002 89.2512 208.483 88.821 208.274C88.3908 208.064 87.872 208.242 87.6621 208.673C86.6087 210.832 85.0438 212.222 83.2624 212.836C81.4809 213.449 79.3921 213.317 77.2322 212.264C76.802 212.054 76.2832 212.233 76.0734 212.663Z" fill="#E2063C"/>
<path d="M77.5931 209.547C77.3832 209.977 77.5619 210.496 77.9921 210.706C81.1486 212.246 84.5647 211.069 86.1042 207.913C86.3141 207.483 86.1354 206.964 85.7052 206.754C85.275 206.544 84.7561 206.723 84.5463 207.153C83.4264 209.449 81.0481 210.268 78.7519 209.148C78.3217 208.938 77.8029 209.117 77.5931 209.547Z" fill="#E2063C"/>
</g>
<g opacity="0.92">
<path d="M103.908 223.033C103.463 223.136 103.186 223.58 103.289 224.025C103.889 226.624 105.273 228.652 107.219 229.868C109.165 231.084 111.595 231.44 114.195 230.839C114.639 230.737 114.917 230.293 114.814 229.848C114.711 229.403 114.267 229.126 113.823 229.229C111.589 229.744 109.62 229.418 108.096 228.466C106.571 227.514 105.415 225.886 104.9 223.653C104.797 223.208 104.353 222.931 103.908 223.033Z" fill="#E2063C"/>
<path d="M107.13 222.289C106.685 222.392 106.408 222.836 106.511 223.281C107.264 226.545 110.187 228.371 113.451 227.618C113.896 227.515 114.173 227.071 114.07 226.626C113.967 226.181 113.524 225.904 113.079 226.007C110.704 226.555 108.67 225.283 108.122 222.909C108.019 222.464 107.575 222.187 107.13 222.289Z" fill="#E2063C"/>
</g>
<g opacity="0.9">
<path d="M142.404 80.6492C142.954 80.601 143.361 80.116 143.313 79.5658C143.032 76.3508 141.715 73.6884 139.588 71.9042C137.462 70.1199 134.611 69.2851 131.396 69.5664C130.846 69.6145 130.439 70.0995 130.487 70.6497C130.535 71.1999 131.02 71.6069 131.571 71.5588C134.333 71.3171 136.637 72.0389 138.303 73.4363C139.968 74.8337 141.079 76.9779 141.321 79.7401C141.369 80.2903 141.854 80.6973 142.404 80.6492Z" fill="#E2063C"/>
<path d="M138.419 80.9978C138.969 80.9496 139.376 80.4646 139.328 79.9144C138.975 75.8776 135.782 73.198 131.745 73.5512C131.195 73.5993 130.788 74.0843 130.836 74.6345C130.884 75.1847 131.369 75.5917 131.919 75.5435C134.856 75.2866 137.079 77.1522 137.336 80.0887C137.384 80.6389 137.869 81.0459 138.419 80.9978Z" fill="#E2063C"/>
</g>
<g opacity="0.83">
<path d="M171.222 278.133C171.635 278.309 172.113 278.116 172.288 277.703C173.314 275.286 173.385 272.871 172.539 270.778C171.693 268.685 169.965 266.997 167.549 265.971C167.135 265.796 166.658 265.989 166.482 266.402C166.307 266.816 166.5 267.293 166.913 267.469C168.989 268.35 170.368 269.748 171.031 271.388C171.693 273.027 171.672 274.991 170.791 277.067C170.616 277.48 170.808 277.958 171.222 278.133Z" fill="#E2063C"/>
<path d="M168.227 276.862C168.641 277.038 169.118 276.845 169.294 276.431C170.582 273.397 169.311 270.254 166.278 268.966C165.864 268.791 165.387 268.983 165.211 269.397C165.036 269.81 165.228 270.288 165.642 270.463C167.849 271.4 168.733 273.589 167.796 275.796C167.621 276.209 167.814 276.687 168.227 276.862Z" fill="#E2063C"/>
</g>
<g opacity="0.87">
<path d="M193.765 247.494C194.311 247.693 194.916 247.411 195.115 246.865C196.277 243.67 196.205 240.542 194.97 237.892C193.734 235.242 191.384 233.176 188.19 232.014C187.643 231.815 187.039 232.097 186.84 232.643C186.641 233.19 186.923 233.794 187.469 233.993C190.214 234.992 192.093 236.707 193.06 238.783C194.028 240.858 194.134 243.4 193.135 246.144C192.936 246.691 193.218 247.295 193.765 247.494Z" fill="#E2063C"/>
<path d="M189.805 246.053C190.352 246.252 190.957 245.97 191.156 245.424C192.615 241.413 190.76 237.433 186.749 235.973C186.202 235.774 185.598 236.056 185.399 236.603C185.2 237.149 185.482 237.754 186.028 237.953C188.946 239.015 190.238 241.785 189.176 244.703C188.977 245.25 189.259 245.854 189.805 246.053Z" fill="#E2063C"/>
</g>
<g opacity="0.87">
<path d="M212.335 203.39C212.168 202.605 211.396 202.104 210.611 202.271C206.024 203.246 202.416 205.618 200.219 209.001C198.022 212.384 197.323 216.644 198.298 221.232C198.465 222.017 199.236 222.518 200.022 222.351C200.807 222.184 201.308 221.413 201.141 220.628C200.303 216.686 200.936 213.234 202.657 210.584C204.378 207.934 207.274 205.952 211.216 205.114C212.001 204.947 212.502 204.175 212.335 203.39Z" fill="#E2063C"/>
<path d="M213.544 209.077C213.377 208.291 212.605 207.79 211.82 207.957C206.059 209.182 202.76 214.263 203.984 220.023C204.151 220.808 204.923 221.31 205.708 221.143C206.493 220.976 206.994 220.204 206.827 219.419C205.937 215.229 208.234 211.691 212.424 210.8C213.209 210.633 213.711 209.862 213.544 209.077Z" fill="#E2063C"/>
</g>
<g opacity="0.98">
<path d="M198.247 44.9827C198.031 45.7865 198.508 46.6126 199.312 46.828C204.009 48.0865 208.457 47.5936 212.079 45.5025C215.701 43.4114 218.352 39.8056 219.61 35.1089C219.825 34.3051 219.348 33.4789 218.545 33.2636C217.741 33.0482 216.915 33.5252 216.699 34.329C215.618 38.3642 213.409 41.2551 210.572 42.8929C207.735 44.5306 204.127 44.9986 200.092 43.9173C199.288 43.702 198.462 44.1789 198.247 44.9827Z" fill="#E2063C"/>
<path d="M199.806 39.1614C199.591 39.9651 200.068 40.7913 200.872 41.0067C206.769 42.5869 212.209 39.4464 213.789 33.549C214.004 32.7453 213.527 31.9191 212.723 31.7038C211.92 31.4884 211.093 31.9654 210.878 32.7691C209.729 37.059 205.942 39.2455 201.652 38.096C200.848 37.8806 200.022 38.3576 199.806 39.1614Z" fill="#E2063C"/>
</g>
<g opacity="0.97">
<path d="M260.885 82.4287C260.48 81.8049 259.646 81.6276 259.022 82.0327C255.377 84.3997 253.044 87.6491 252.267 91.3055C251.49 94.9619 252.3 98.8792 254.667 102.524C255.072 103.148 255.906 103.325 256.529 102.92C257.153 102.515 257.33 101.681 256.925 101.057C254.892 97.9257 254.293 94.7291 254.902 91.8655C255.51 89.0018 257.357 86.3252 260.489 84.2915C261.113 83.8864 261.29 83.0524 260.885 82.4287Z" fill="#E2063C"/>
<path d="M263.819 86.9463C263.414 86.3225 262.58 86.1453 261.956 86.5503C257.379 89.5225 256.212 95.0136 259.184 99.5903C259.589 100.214 260.423 100.391 261.047 99.9863C261.671 99.5812 261.848 98.7472 261.443 98.1234C259.281 94.7943 260.094 90.9712 263.423 88.8092C264.047 88.4041 264.224 87.5701 263.819 86.9463Z" fill="#E2063C"/>
</g>
<g opacity="0.71">
<path d="M254.953 25.388C254.476 25.5427 254.216 26.0542 254.371 26.5304C255.275 29.3133 256.981 31.3967 259.224 32.5392C261.466 33.6818 264.155 33.8379 266.938 32.9337C267.414 32.779 267.675 32.2675 267.52 31.7912C267.365 31.315 266.854 31.0544 266.377 31.2091C263.986 31.986 261.803 31.8184 260.047 30.9235C258.291 30.0287 256.872 28.361 256.095 25.9701C255.94 25.4939 255.429 25.2332 254.953 25.388Z" fill="#E2063C"/>
<path d="M258.402 24.2673C257.926 24.422 257.665 24.9335 257.82 25.4097C258.955 28.904 262.323 30.6199 265.817 29.4845C266.293 29.3298 266.554 28.8183 266.399 28.3421C266.244 27.8658 265.733 27.6052 265.257 27.76C262.715 28.5858 260.37 27.3912 259.544 24.8494C259.39 24.3732 258.878 24.1125 258.402 24.2673Z" fill="#E2063C"/>
</g>
<g opacity="0.82">
<path d="M267.968 14.2036C267.603 14.4783 267.53 14.9967 267.805 15.3613C269.411 17.4919 271.5 18.7814 273.773 19.1008C276.045 19.4201 278.409 18.7566 280.54 17.151C280.904 16.8763 280.977 16.358 280.703 15.9933C280.428 15.6287 279.909 15.5559 279.545 15.8306C277.714 17.2101 275.782 17.7136 274.003 17.4635C272.223 17.2134 270.505 16.1969 269.125 14.3663C268.851 14.0017 268.332 13.9288 267.968 14.2036Z" fill="#E2063C"/>
<path d="M270.609 12.2136C270.244 12.4883 270.171 13.0067 270.446 13.3713C272.462 16.0466 275.874 16.5262 278.55 14.5102C278.914 14.2355 278.987 13.7171 278.713 13.3525C278.438 12.9879 277.919 12.915 277.555 13.1898C275.609 14.6563 273.233 14.3224 271.766 12.3763C271.492 12.0117 270.973 11.9388 270.609 12.2136Z" fill="#E2063C"/>
</g>
<g opacity="0.81">
<path d="M302.064 275.266C302.567 275.752 303.369 275.738 303.855 275.235C306.695 272.295 308.145 268.823 308.084 265.307C308.023 261.792 306.452 258.373 303.511 255.533C303.008 255.047 302.206 255.061 301.72 255.565C301.234 256.068 301.248 256.87 301.751 257.356C304.278 259.796 305.503 262.598 305.551 265.352C305.599 268.105 304.472 270.949 302.033 273.475C301.547 273.979 301.561 274.78 302.064 275.266Z" fill="#E2063C"/>
<path d="M298.419 271.747C298.923 272.233 299.724 272.219 300.21 271.716C303.776 268.023 303.684 262.744 299.992 259.178C299.488 258.692 298.686 258.706 298.2 259.209C297.715 259.713 297.729 260.514 298.232 261C300.918 263.594 300.982 267.27 298.388 269.956C297.902 270.459 297.916 271.261 298.419 271.747Z" fill="#E2063C"/>
</g>
<g opacity="0.8">
<path d="M342.306 119.611C342.197 119.176 341.756 118.91 341.32 119.019C338.773 119.654 336.802 121.051 335.639 122.986C334.476 124.921 334.168 127.318 334.803 129.864C334.912 130.3 335.353 130.565 335.789 130.457C336.225 130.348 336.49 129.907 336.382 129.471C335.836 127.283 336.123 125.339 337.033 123.824C337.944 122.308 339.525 121.143 341.713 120.597C342.149 120.489 342.414 120.047 342.306 119.611Z" fill="#E2063C"/>
<path d="M343.093 122.768C342.984 122.332 342.543 122.067 342.107 122.176C338.909 122.973 337.163 125.879 337.96 129.077C338.069 129.513 338.51 129.778 338.946 129.67C339.382 129.561 339.647 129.12 339.538 128.684C338.958 126.358 340.174 124.334 342.5 123.754C342.936 123.645 343.201 123.204 343.093 122.768Z" fill="#E2063C"/>
</g>
<g opacity="0.82">
<path d="M338.703 75.9822C338.491 76.8325 339.009 77.6936 339.859 77.9056C344.827 79.1444 349.502 78.5437 353.277 76.2753C357.052 74.007 359.777 70.1615 361.016 65.1931C361.228 64.3428 360.711 63.4817 359.86 63.2697C359.01 63.0577 358.149 63.5751 357.937 64.4254C356.873 68.6941 354.599 71.7787 351.643 73.5552C348.686 75.3318 344.895 75.8909 340.627 74.8265C339.776 74.6146 338.915 75.132 338.703 75.9822Z" fill="#E2063C"/>
<path d="M340.239 69.8241C340.027 70.6744 340.544 71.5355 341.394 71.7475C347.633 73.3029 353.303 69.8963 354.858 63.6577C355.07 62.8074 354.553 61.9463 353.702 61.7343C352.852 61.5223 351.991 62.0397 351.779 62.89C350.647 67.4281 346.7 69.7999 342.162 68.6684C341.312 68.4564 340.451 68.9738 340.239 69.8241Z" fill="#E2063C"/>
</g>
<g opacity="0.74">
<path d="M358.491 265.825C358.086 266.527 358.327 267.424 359.028 267.829C363.127 270.196 367.434 270.853 371.366 269.799C375.299 268.745 378.7 266.023 381.067 261.924C381.472 261.222 381.231 260.325 380.53 259.92C379.828 259.515 378.931 259.756 378.526 260.457C376.493 263.979 373.687 266.141 370.607 266.966C367.527 267.791 364.017 267.322 360.495 265.289C359.793 264.884 358.896 265.124 358.491 265.825Z" fill="#E2063C"/>
<path d="M361.425 260.745C361.02 261.446 361.26 262.343 361.961 262.748C367.109 265.72 373.014 264.137 375.986 258.99C376.391 258.289 376.151 257.392 375.449 256.987C374.748 256.582 373.851 256.822 373.446 257.524C371.284 261.268 367.172 262.37 363.428 260.208C362.727 259.803 361.83 260.043 361.425 260.745Z" fill="#E2063C"/>
</g>
<g opacity="0.97">
<path d="M406.497 153.539C407.226 153.642 407.901 153.133 408.003 152.404C408.602 148.143 407.689 144.289 405.462 141.333C403.235 138.378 399.781 136.438 395.52 135.839C394.791 135.737 394.117 136.245 394.014 136.974C393.912 137.703 394.42 138.377 395.149 138.48C398.81 138.994 401.588 140.623 403.332 142.938C405.077 145.253 405.877 148.372 405.362 152.033C405.26 152.762 405.768 153.437 406.497 153.539Z" fill="#E2063C"/>
<path d="M401.216 152.797C401.945 152.899 402.619 152.391 402.722 151.662C403.474 146.312 400.129 141.872 394.778 141.121C394.049 141.018 393.375 141.526 393.272 142.255C393.17 142.985 393.678 143.659 394.407 143.761C398.299 144.308 400.628 147.399 400.081 151.291C399.978 152.02 400.487 152.694 401.216 152.797Z" fill="#E2063C"/>
</g>
<g opacity="0.77">
<path d="M403.572 37.394C403.044 37.5554 402.747 38.1145 402.908 38.6426C403.852 41.7289 405.694 44.0593 408.145 45.3624C410.595 46.6656 413.557 46.8895 416.644 45.9459C417.172 45.7844 417.469 45.2254 417.308 44.6972C417.146 44.1691 416.587 43.8718 416.059 44.0333C413.407 44.844 411.003 44.6171 409.084 43.5965C407.164 42.5759 405.632 40.7095 404.821 38.0579C404.659 37.5297 404.1 37.2325 403.572 37.394Z" fill="#E2063C"/>
<path d="M407.397 36.2245C406.869 36.386 406.572 36.945 406.733 37.4732C407.918 41.3484 411.599 43.3055 415.474 42.1207C416.002 41.9592 416.3 41.4002 416.138 40.872C415.977 40.3439 415.418 40.0466 414.889 40.2081C412.071 41.0699 409.508 39.7073 408.646 36.8884C408.485 36.3603 407.926 36.063 407.397 36.2245Z" fill="#E2063C"/>
</g>
<g opacity="0.9">
<path d="M27.8519 548.61C27.7828 548.047 27.2705 547.647 26.7077 547.716C23.4191 548.12 20.7346 549.566 18.98 551.812C17.2255 554.058 16.4711 557.013 16.8749 560.301C16.944 560.864 17.4562 561.264 18.019 561.195C18.5818 561.126 18.982 560.614 18.9129 560.051C18.566 557.225 19.224 554.835 20.5981 553.076C21.9722 551.317 24.1325 550.101 26.958 549.754C27.5207 549.685 27.921 549.172 27.8519 548.61Z" fill="#E2063C"/>
<path d="M28.3523 552.686C28.2832 552.123 27.771 551.723 27.2082 551.792C23.0789 552.299 20.4439 555.671 20.9509 559.801C21.02 560.363 21.5323 560.764 22.0951 560.695C22.6579 560.625 23.0581 560.113 22.989 559.55C22.6201 556.547 24.4547 554.199 27.4584 553.83C28.0212 553.761 28.4214 553.248 28.3523 552.686Z" fill="#E2063C"/>
</g>
<g opacity="0.96">
<path d="M39.8575 339.753C39.5871 339.116 38.8513 338.818 38.2141 339.089C34.4908 340.669 31.8274 343.271 30.5242 346.496C29.2209 349.722 29.3299 353.443 30.9103 357.166C31.1808 357.804 31.9166 358.101 32.5537 357.83C33.1909 357.56 33.4882 356.824 33.2177 356.187C31.8598 352.988 31.8276 349.962 32.8483 347.435C33.869 344.909 35.9946 342.754 39.1936 341.396C39.8307 341.126 40.128 340.39 39.8575 339.753Z" fill="#E2063C"/>
<path d="M41.8164 344.368C41.5459 343.731 40.8102 343.433 40.173 343.704C35.4979 345.688 33.5406 350.533 35.5251 355.208C35.7956 355.845 36.5313 356.142 37.1685 355.872C37.8057 355.601 38.103 354.865 37.8325 354.228C36.389 350.827 37.7516 347.455 41.1524 346.011C41.7896 345.741 42.0869 345.005 41.8164 344.368Z" fill="#E2063C"/>
</g>
<g opacity="0.77">
<path d="M52.6245 442.674C53.3108 442.897 54.048 442.522 54.271 441.835C55.5741 437.825 55.3491 433.95 53.7025 430.718C52.0559 427.487 49.0533 425.027 45.0428 423.724C44.3564 423.501 43.6193 423.877 43.3963 424.563C43.1733 425.249 43.5489 425.986 44.2352 426.209C47.6809 427.329 50.0844 429.374 51.374 431.905C52.6636 434.436 52.9052 437.582 51.7856 441.028C51.5626 441.714 51.9382 442.451 52.6245 442.674Z" fill="#E2063C"/>
<path d="M47.6537 441.059C48.34 441.282 49.0772 440.907 49.3002 440.22C50.9364 435.184 48.4635 430.331 43.4276 428.695C42.7413 428.472 42.0041 428.847 41.7811 429.534C41.5581 430.22 41.9337 430.957 42.6201 431.18C46.2832 432.37 48.005 435.75 46.8147 439.413C46.5917 440.099 46.9673 440.836 47.6537 441.059Z" fill="#E2063C"/>
</g>
<g opacity="0.73">
<path d="M77.3405 416.796C77.1618 416.212 76.5432 415.883 75.9587 416.061C72.5432 417.106 69.9643 419.144 68.5221 421.856C67.08 424.569 66.8322 427.846 67.8764 431.262C68.0551 431.846 68.6738 432.175 69.2583 431.997C69.8428 431.818 70.1717 431.199 69.993 430.615C69.0959 427.68 69.3469 425.02 70.4764 422.895C71.6059 420.771 73.6714 419.075 76.6058 418.178C77.1903 417.999 77.5192 417.381 77.3405 416.796Z" fill="#E2063C"/>
<path d="M78.6348 421.029C78.4561 420.445 77.8374 420.116 77.2529 420.295C72.9643 421.606 70.7985 425.679 72.1096 429.968C72.2883 430.552 72.907 430.881 73.4915 430.702C74.076 430.524 74.405 429.905 74.2263 429.321C73.2725 426.201 74.7804 423.365 77.9 422.411C78.4845 422.232 78.8135 421.614 78.6348 421.029Z" fill="#E2063C"/>
</g>
<g opacity="0.89">
<path d="M92.7353 527.476C92.3422 527.109 91.7263 527.131 91.3597 527.524C89.2174 529.821 88.1495 532.508 88.2438 535.208C88.338 537.908 89.5908 540.514 91.8881 542.656C92.2813 543.023 92.8972 543.001 93.2638 542.608C93.6304 542.215 93.6089 541.599 93.2157 541.233C91.242 539.392 90.2631 537.255 90.1892 535.14C90.1154 533.026 90.9428 530.825 92.7834 528.852C93.15 528.459 93.1285 527.843 92.7353 527.476Z" fill="#E2063C"/>
<path d="M95.5828 530.131C95.1896 529.765 94.5737 529.786 94.2071 530.179C91.5171 533.064 91.6587 537.119 94.5434 539.809C94.9365 540.176 95.5524 540.154 95.919 539.761C96.2856 539.368 96.2641 538.752 95.871 538.385C93.7727 536.429 93.6741 533.605 95.6308 531.507C95.9974 531.114 95.9759 530.498 95.5828 530.131Z" fill="#E2063C"/>
</g>
<g opacity="0.83">
<path d="M123.725 443.037C123.376 442.5 122.657 442.347 122.12 442.696C118.98 444.735 116.971 447.534 116.301 450.684C115.632 453.833 116.329 457.208 118.368 460.347C118.717 460.885 119.436 461.037 119.973 460.688C120.51 460.339 120.663 459.621 120.314 459.084C118.562 456.386 118.046 453.633 118.571 451.166C119.095 448.699 120.686 446.394 123.384 444.642C123.921 444.293 124.074 443.575 123.725 443.037Z" fill="#E2063C"/>
<path d="M126.252 446.929C125.903 446.392 125.184 446.239 124.647 446.588C120.705 449.148 119.699 453.878 122.26 457.82C122.609 458.358 123.327 458.51 123.864 458.161C124.402 457.812 124.554 457.094 124.205 456.557C122.343 453.689 123.043 450.396 125.911 448.533C126.448 448.185 126.601 447.466 126.252 446.929Z" fill="#E2063C"/>
</g>
<g opacity="0.77">
<path d="M148.308 317.095C148.536 316.433 148.184 315.712 147.523 315.485C143.658 314.154 139.898 314.306 136.738 315.847C133.578 317.389 131.143 320.257 129.812 324.123C129.585 324.784 129.936 325.505 130.598 325.733C131.259 325.96 131.98 325.609 132.208 324.947C133.351 321.627 135.374 319.332 137.849 318.124C140.324 316.917 143.377 316.736 146.698 317.88C147.36 318.108 148.08 317.756 148.308 317.095Z" fill="#E2063C"/>
<path d="M146.659 321.885C146.886 321.224 146.535 320.503 145.873 320.275C141.02 318.604 136.274 320.919 134.603 325.772C134.375 326.434 134.727 327.154 135.388 327.382C136.05 327.61 136.771 327.258 136.998 326.597C138.214 323.067 141.518 321.455 145.049 322.67C145.71 322.898 146.431 322.547 146.659 321.885Z" fill="#E2063C"/>
</g>
<g opacity="0.82">
<path d="M148.666 394.732C148.242 395.316 148.371 396.133 148.955 396.557C152.367 399.036 156.122 400.019 159.704 399.452C163.286 398.884 166.553 396.789 169.032 393.377C169.456 392.793 169.327 391.976 168.743 391.552C168.159 391.128 167.342 391.257 166.918 391.841C164.788 394.772 162.101 396.426 159.295 396.871C156.489 397.315 153.423 396.572 150.491 394.443C149.908 394.019 149.09 394.148 148.666 394.732Z" fill="#E2063C"/>
<path d="M151.738 390.504C151.314 391.087 151.444 391.905 152.027 392.329C156.311 395.441 161.691 394.589 164.804 390.305C165.228 389.721 165.098 388.904 164.514 388.48C163.931 388.056 163.113 388.185 162.689 388.769C160.425 391.885 156.68 392.478 153.564 390.214C152.98 389.79 152.163 389.92 151.738 390.504Z" fill="#E2063C"/>
</g>
<g opacity="0.81">
<path d="M200.429 402.168C200.916 401.73 200.955 400.979 200.517 400.492C197.954 397.646 194.804 396.064 191.515 395.891C188.226 395.719 184.928 396.964 182.082 399.526C181.595 399.965 181.555 400.715 181.994 401.202C182.433 401.689 183.183 401.728 183.67 401.29C186.115 399.088 188.815 398.126 191.391 398.261C193.967 398.396 196.551 399.635 198.753 402.08C199.192 402.567 199.942 402.607 200.429 402.168Z" fill="#E2063C"/>
<path d="M196.901 405.344C197.388 404.906 197.428 404.155 196.989 403.668C193.772 400.095 188.832 399.836 185.258 403.054C184.771 403.492 184.732 404.242 185.17 404.73C185.609 405.217 186.359 405.256 186.846 404.817C189.446 402.477 192.885 402.657 195.226 405.256C195.664 405.744 196.414 405.783 196.901 405.344Z" fill="#E2063C"/>
</g>
<g opacity="0.76">
<path d="M206.964 526.16C207.546 526.171 208.026 525.707 208.036 525.126C208.095 521.727 207.008 518.793 204.977 516.69C202.946 514.586 200.052 513.398 196.653 513.339C196.071 513.328 195.592 513.792 195.582 514.373C195.571 514.955 196.035 515.435 196.616 515.445C199.537 515.496 201.871 516.506 203.462 518.153C205.053 519.8 205.98 522.169 205.929 525.089C205.919 525.671 206.383 526.15 206.964 526.16Z" fill="#E2063C"/>
<path d="M202.752 526.087C203.333 526.097 203.813 525.634 203.823 525.052C203.898 520.784 200.847 517.626 196.58 517.551C195.998 517.541 195.518 518.004 195.508 518.586C195.498 519.168 195.961 519.647 196.543 519.658C199.647 519.712 201.771 521.911 201.717 525.015C201.707 525.597 202.17 526.077 202.752 526.087Z" fill="#E2063C"/>
</g>
<g opacity="0.76">
<path d="M242.564 567.614C243.085 567.512 243.424 567.009 243.323 566.488C242.732 563.447 241.207 561.037 238.998 559.547C236.789 558.057 233.984 557.546 230.942 558.137C230.422 558.238 230.082 558.742 230.183 559.263C230.284 559.783 230.788 560.123 231.309 560.022C233.922 559.514 236.194 559.972 237.925 561.139C239.655 562.306 240.931 564.241 241.439 566.854C241.54 567.375 242.044 567.715 242.564 567.614Z" fill="#E2063C"/>
<path d="M238.795 568.346C239.315 568.245 239.655 567.741 239.554 567.221C238.812 563.402 235.494 561.164 231.675 561.906C231.155 562.008 230.815 562.512 230.916 563.032C231.017 563.552 231.521 563.892 232.041 563.791C234.819 563.251 237.129 564.809 237.669 567.587C237.77 568.108 238.274 568.447 238.795 568.346Z" fill="#E2063C"/>
</g>
<g opacity="0.72">
<path d="M241.335 290.433C240.857 290.458 240.49 290.866 240.515 291.344C240.662 294.137 241.722 296.483 243.51 298.093C245.298 299.703 247.741 300.512 250.535 300.366C251.013 300.34 251.38 299.933 251.355 299.455C251.33 298.977 250.922 298.61 250.444 298.635C248.044 298.76 246.07 298.065 244.67 296.805C243.269 295.544 242.372 293.653 242.246 291.254C242.221 290.776 241.813 290.408 241.335 290.433Z" fill="#E2063C"/>
<path d="M244.797 290.252C244.319 290.277 243.952 290.685 243.977 291.163C244.161 294.67 246.846 297.087 250.353 296.904C250.831 296.879 251.198 296.471 251.173 295.993C251.148 295.515 250.74 295.148 250.262 295.173C247.711 295.306 245.842 293.623 245.708 291.072C245.683 290.594 245.275 290.227 244.797 290.252Z" fill="#E2063C"/>
</g>
<g opacity="0.89">
<path d="M285.715 308.24C285.667 307.786 285.261 307.456 284.807 307.504C282.153 307.783 279.972 308.91 278.528 310.693C277.084 312.477 276.435 314.845 276.714 317.498C276.761 317.952 277.168 318.282 277.622 318.234C278.076 318.186 278.406 317.779 278.358 317.325C278.118 315.046 278.682 313.13 279.813 311.734C280.944 310.337 282.7 309.388 284.979 309.148C285.433 309.101 285.763 308.694 285.715 308.24Z" fill="#E2063C"/>
<path d="M286.061 311.528C286.013 311.074 285.606 310.745 285.152 310.793C281.821 311.143 279.652 313.821 280.002 317.152C280.05 317.606 280.457 317.936 280.911 317.888C281.365 317.84 281.694 317.434 281.646 316.98C281.392 314.556 282.902 312.692 285.325 312.437C285.779 312.389 286.108 311.982 286.061 311.528Z" fill="#E2063C"/>
</g>
<path d="M284.323 413.75C284.799 413.904 285.311 413.644 285.466 413.167C286.37 410.385 286.214 407.696 285.071 405.454C283.929 403.211 281.845 401.505 279.062 400.6C278.586 400.446 278.075 400.706 277.92 401.182C277.765 401.659 278.026 402.17 278.502 402.325C280.893 403.102 282.561 404.521 283.455 406.277C284.35 408.033 284.518 410.216 283.741 412.607C283.586 413.083 283.847 413.595 284.323 413.75Z" fill="#E2063C"/>
<path d="M280.874 412.629C281.35 412.784 281.862 412.523 282.016 412.047C283.152 408.553 281.436 405.185 277.942 404.05C277.465 403.895 276.954 404.155 276.799 404.632C276.644 405.108 276.905 405.619 277.381 405.774C279.923 406.6 281.118 408.945 280.292 411.486C280.137 411.963 280.398 412.474 280.874 412.629Z" fill="#E2063C"/>
<g opacity="0.92">
<path d="M312.076 557.678C311.833 557.157 311.214 556.932 310.694 557.175C307.652 558.593 305.519 560.827 304.531 563.54C303.544 566.253 303.742 569.336 305.16 572.378C305.403 572.898 306.022 573.123 306.543 572.881C307.063 572.638 307.288 572.019 307.046 571.499C305.827 568.885 305.713 566.376 306.486 564.252C307.259 562.127 308.959 560.279 311.573 559.06C312.093 558.817 312.319 558.198 312.076 557.678Z" fill="#E2063C"/>
<path d="M313.834 561.448C313.591 560.927 312.973 560.702 312.452 560.945C308.632 562.726 307.15 566.8 308.931 570.62C309.173 571.14 309.792 571.365 310.313 571.123C310.833 570.88 311.059 570.261 310.816 569.74C309.52 566.962 310.553 564.126 313.331 562.83C313.852 562.587 314.077 561.969 313.834 561.448Z" fill="#E2063C"/>
</g>
<g opacity="0.72">
<path d="M315.978 483.18C315.887 483.925 316.417 484.604 317.163 484.695C321.519 485.23 325.433 484.231 328.408 481.907C331.383 479.583 333.299 476.026 333.834 471.67C333.926 470.925 333.396 470.246 332.65 470.154C331.905 470.063 331.226 470.593 331.135 471.339C330.675 475.081 329.063 477.943 326.733 479.763C324.404 481.584 321.237 482.455 317.494 481.996C316.749 481.904 316.07 482.434 315.978 483.18Z" fill="#E2063C"/>
<path d="M316.641 477.78C316.55 478.526 317.08 479.204 317.826 479.296C323.296 479.968 327.763 476.477 328.435 471.007C328.526 470.262 327.996 469.583 327.251 469.491C326.505 469.4 325.827 469.93 325.735 470.676C325.247 474.655 322.136 477.085 318.157 476.596C317.412 476.505 316.733 477.035 316.641 477.78Z" fill="#E2063C"/>
</g>
<g opacity="0.81">
<path d="M370.001 506.387C370.45 506.402 370.826 506.051 370.842 505.602C370.933 502.979 370.134 500.699 368.594 499.048C367.055 497.397 364.836 496.44 362.213 496.349C361.764 496.333 361.387 496.684 361.372 497.133C361.356 497.582 361.707 497.959 362.156 497.974C364.41 498.053 366.199 498.864 367.405 500.157C368.611 501.45 369.295 503.291 369.216 505.545C369.2 505.994 369.552 506.371 370.001 506.387Z" fill="#E2063C"/>
<path d="M366.749 506.273C367.198 506.289 367.575 505.937 367.59 505.489C367.706 502.195 365.393 499.715 362.099 499.6C361.65 499.584 361.274 499.935 361.258 500.384C361.242 500.833 361.594 501.21 362.043 501.226C364.439 501.309 366.048 503.036 365.965 505.432C365.949 505.881 366.3 506.257 366.749 506.273Z" fill="#E2063C"/>
</g>
<g opacity="0.85">
<path d="M347.339 338.021C346.592 338.37 346.268 339.258 346.617 340.006C348.653 344.374 351.862 347.437 355.757 348.855C359.652 350.273 364.079 349.988 368.447 347.951C369.194 347.603 369.517 346.714 369.169 345.967C368.82 345.219 367.932 344.896 367.184 345.244C363.432 346.994 359.829 347.159 356.778 346.048C353.728 344.938 351.073 342.496 349.324 338.744C348.975 337.996 348.087 337.673 347.339 338.021Z" fill="#E2063C"/>
<path d="M352.753 335.497C352.005 335.845 351.682 336.734 352.03 337.481C354.588 342.966 360.438 345.095 365.922 342.538C366.67 342.189 366.993 341.301 366.644 340.553C366.296 339.806 365.407 339.482 364.66 339.831C360.67 341.691 356.598 340.209 354.737 336.219C354.389 335.472 353.5 335.148 352.753 335.497Z" fill="#E2063C"/>
</g>
<g opacity="0.76">
<path d="M401.597 438.46C402.029 438.699 402.573 438.543 402.812 438.112C404.21 435.59 404.564 432.961 403.881 430.577C403.197 428.193 401.503 426.151 398.981 424.753C398.55 424.514 398.006 424.67 397.767 425.102C397.528 425.533 397.684 426.077 398.115 426.316C400.282 427.517 401.628 429.203 402.163 431.069C402.698 432.936 402.45 435.079 401.249 437.246C401.01 437.677 401.166 438.221 401.597 438.46Z" fill="#E2063C"/>
<path d="M398.472 436.728C398.904 436.967 399.447 436.811 399.687 436.38C401.442 433.213 400.415 429.634 397.249 427.879C396.817 427.639 396.274 427.795 396.035 428.227C395.795 428.658 395.951 429.202 396.383 429.441C398.686 430.718 399.401 433.21 398.124 435.513C397.885 435.945 398.041 436.489 398.472 436.728Z" fill="#E2063C"/>
</g>
<path d="M394.284 563.941C394 564.432 394.169 565.059 394.66 565.343C397.529 567 400.544 567.46 403.296 566.722C406.049 565.985 408.43 564.079 410.087 561.209C410.37 560.718 410.202 560.09 409.711 559.807C409.22 559.523 408.592 559.692 408.308 560.183C406.885 562.648 404.921 564.161 402.765 564.739C400.609 565.316 398.152 564.988 395.686 563.565C395.195 563.281 394.567 563.449 394.284 563.941Z" fill="#E2063C"/>
<path d="M396.337 560.384C396.054 560.875 396.222 561.503 396.713 561.786C400.316 563.867 404.45 562.759 406.53 559.156C406.814 558.665 406.645 558.037 406.154 557.754C405.663 557.47 405.035 557.638 404.752 558.129C403.239 560.75 400.361 561.521 397.74 560.008C397.249 559.725 396.621 559.893 396.337 560.384Z" fill="#E2063C"/>
<g opacity="0.72">
<path d="M13.0801 680.438C13.6476 681.047 14.601 681.08 15.2096 680.513C18.7657 677.197 20.7049 673.163 20.8508 668.983C20.9968 664.804 19.3437 660.645 16.0275 657.089C15.46 656.48 14.5067 656.447 13.8981 657.014C13.2895 657.582 13.2562 658.535 13.8237 659.144C16.6729 662.199 17.9537 665.605 17.8393 668.878C17.725 672.152 16.2098 675.46 13.1545 678.309C12.5459 678.876 12.5126 679.83 13.0801 680.438Z" fill="#E2063C"/>
<path d="M8.96993 676.031C9.53743 676.639 10.4908 676.673 11.0994 676.105C15.5646 671.941 15.7838 665.664 11.6199 661.199C11.0524 660.59 10.099 660.557 9.49047 661.125C8.8819 661.692 8.84861 662.645 9.41611 663.254C12.445 666.502 12.2924 670.872 9.0443 673.901C8.43573 674.469 8.40244 675.422 8.96993 676.031Z" fill="#E2063C"/>
</g>
<g opacity="0.96">
<path d="M41.3634 736.015C42.124 735.839 42.5982 735.08 42.4226 734.32C41.3965 729.876 39.0294 726.408 35.7024 724.329C32.3754 722.251 28.2214 721.643 23.7771 722.669C23.0166 722.844 22.5424 723.603 22.718 724.364C22.8935 725.124 23.6524 725.599 24.413 725.423C28.2314 724.542 31.5988 725.098 34.2045 726.727C36.8101 728.355 38.7868 731.137 39.6684 734.956C39.8439 735.716 40.6028 736.19 41.3634 736.015Z" fill="#E2063C"/>
<path d="M35.855 737.287C36.6155 737.111 37.0897 736.352 36.9141 735.592C35.6258 730.011 30.6293 726.889 25.0489 728.177C24.2883 728.353 23.8141 729.112 23.9897 729.872C24.1653 730.633 24.9242 731.107 25.6847 730.932C29.744 729.994 33.2228 732.168 34.1599 736.227C34.3355 736.988 35.0944 737.462 35.855 737.287Z" fill="#E2063C"/>
</g>
<g opacity="0.88">
<path d="M70.5138 857.077C71.018 857.184 71.5136 856.862 71.6207 856.358C72.247 853.411 71.7979 850.676 70.3869 848.503C68.9758 846.33 66.6593 844.807 63.713 844.181C63.2088 844.074 62.7132 844.396 62.606 844.9C62.4988 845.404 62.8207 845.9 63.3249 846.007C65.8562 846.545 67.7162 847.818 68.8213 849.52C69.9264 851.221 70.3329 853.438 69.7949 855.97C69.6877 856.474 70.0096 856.969 70.5138 857.077Z" fill="#E2063C"/>
<path d="M66.862 856.3C67.3662 856.408 67.8618 856.086 67.969 855.582C68.7553 851.882 66.6363 848.619 62.9368 847.833C62.4326 847.725 61.937 848.047 61.8298 848.552C61.7226 849.056 62.0445 849.551 62.5487 849.658C65.2398 850.23 66.7151 852.502 66.1431 855.193C66.0359 855.698 66.3578 856.193 66.862 856.3Z" fill="#E2063C"/>
</g>
<g opacity="0.82">
<path d="M94.1011 893.183C94.879 893.348 95.6437 892.851 95.809 892.073C96.7752 887.528 96.0823 883.307 93.9053 879.955C91.7283 876.602 88.1542 874.252 83.6085 873.286C82.8306 873.121 82.0659 873.617 81.9006 874.395C81.7352 875.173 82.2318 875.938 83.0097 876.103C86.9152 876.933 89.7849 878.898 91.4899 881.523C93.1949 884.149 93.8221 887.569 92.992 891.475C92.8266 892.253 93.3232 893.017 94.1011 893.183Z" fill="#E2063C"/>
<path d="M88.467 891.985C89.2449 892.15 90.0095 891.654 90.1749 890.876C91.3881 885.168 88.1187 880.134 82.4109 878.92C81.633 878.755 80.8683 879.252 80.703 880.029C80.5376 880.807 81.0342 881.572 81.8121 881.737C85.9641 882.62 88.2404 886.125 87.3578 890.277C87.1925 891.055 87.6891 891.82 88.467 891.985Z" fill="#E2063C"/>
</g>
<g opacity="0.87">
<path d="M124.41 746.818C124.733 746.157 124.458 745.358 123.796 745.036C119.929 743.149 115.981 742.826 112.482 744.031C108.983 745.236 106.071 747.921 104.184 751.788C103.862 752.45 104.137 753.249 104.798 753.571C105.46 753.894 106.258 753.619 106.581 752.957C108.202 749.635 110.609 747.496 113.35 746.553C116.091 745.609 119.304 745.812 122.627 747.432C123.289 747.755 124.087 747.48 124.41 746.818Z" fill="#E2063C"/>
<path d="M122.072 751.612C122.395 750.95 122.12 750.152 121.458 749.829C116.602 747.461 111.347 749.27 108.978 754.126C108.655 754.788 108.93 755.586 109.592 755.909C110.254 756.232 111.052 755.957 111.375 755.295C113.098 751.763 116.757 750.503 120.289 752.226C120.951 752.549 121.749 752.274 122.072 751.612Z" fill="#E2063C"/>
</g>
<g opacity="0.73">
<path d="M80.8583 793.942C81.2026 794.618 82.0296 794.886 82.7054 794.542C86.6544 792.53 89.3669 789.483 90.5449 785.858C91.7229 782.232 91.3194 778.173 89.3073 774.224C88.9629 773.548 88.1359 773.279 87.4601 773.623C86.7843 773.968 86.5156 774.795 86.86 775.471C88.5887 778.863 88.8553 782.169 87.9327 785.009C87.0101 787.848 84.8513 790.366 81.4584 792.095C80.7826 792.439 80.5139 793.266 80.8583 793.942Z" fill="#E2063C"/>
<path d="M78.3644 789.047C78.7087 789.723 79.5357 789.992 80.2115 789.647C85.1701 787.121 86.9392 781.676 84.4127 776.718C84.0683 776.042 83.2413 775.773 82.5655 776.117C81.8897 776.462 81.621 777.289 81.9654 777.965C83.8032 781.571 82.5715 785.362 78.9645 787.2C78.2887 787.545 78.02 788.372 78.3644 789.047Z" fill="#E2063C"/>
</g>
<g opacity="0.73">
<path d="M131.74 633.377C131.092 633.551 130.708 634.216 130.882 634.863C131.895 638.646 134.03 641.549 136.947 643.233C139.864 644.917 143.446 645.314 147.228 644.301C147.875 644.127 148.259 643.462 148.086 642.815C147.913 642.168 147.247 641.783 146.6 641.957C143.35 642.828 140.444 642.451 138.16 641.132C135.876 639.813 134.096 637.485 133.226 634.235C133.052 633.588 132.387 633.204 131.74 633.377Z" fill="#E2063C"/>
<path d="M136.428 632.121C135.78 632.295 135.396 632.96 135.57 633.607C136.842 638.356 141.223 640.885 145.972 639.613C146.619 639.439 147.003 638.774 146.83 638.127C146.656 637.48 145.991 637.095 145.344 637.269C141.889 638.195 138.839 636.434 137.914 632.979C137.74 632.332 137.075 631.948 136.428 632.121Z" fill="#E2063C"/>
</g>
<path d="M167.207 814.005C167.736 813.78 167.982 813.17 167.758 812.641C166.446 809.552 164.288 807.341 161.611 806.26C158.935 805.179 155.847 805.269 152.757 806.58C152.229 806.805 151.982 807.415 152.206 807.944C152.431 808.473 153.041 808.72 153.57 808.495C156.225 807.368 158.736 807.342 160.832 808.189C162.929 809.036 164.717 810.799 165.843 813.454C166.068 813.983 166.678 814.229 167.207 814.005Z" fill="#E2063C"/>
<path d="M163.378 815.63C163.906 815.406 164.153 814.795 163.929 814.267C162.282 810.387 158.262 808.763 154.383 810.41C153.854 810.634 153.607 811.245 153.832 811.773C154.056 812.302 154.667 812.549 155.196 812.324C158.017 811.127 160.816 812.257 162.014 815.079C162.238 815.608 162.849 815.855 163.378 815.63Z" fill="#E2063C"/>
<g opacity="0.95">
<path d="M159.674 739.065C158.963 738.99 158.327 739.505 158.252 740.216C157.816 744.367 158.831 748.072 161.09 750.862C163.35 753.652 166.763 755.415 170.914 755.852C171.624 755.926 172.26 755.411 172.335 754.701C172.41 753.99 171.894 753.354 171.184 753.279C167.618 752.904 164.87 751.419 163.1 749.234C161.331 747.049 160.45 744.053 160.825 740.486C160.899 739.776 160.384 739.139 159.674 739.065Z" fill="#E2063C"/>
<path d="M164.818 739.606C164.108 739.531 163.472 740.046 163.397 740.757C162.849 745.969 166.242 750.159 171.454 750.707C172.165 750.781 172.801 750.266 172.876 749.556C172.951 748.845 172.435 748.209 171.725 748.134C167.933 747.736 165.571 744.818 165.97 741.027C166.044 740.317 165.529 739.68 164.818 739.606Z" fill="#E2063C"/>
</g>
<g opacity="0.7">
<path d="M201.622 624.526C201.798 624.963 202.296 625.174 202.733 624.997C205.286 623.966 207.13 622.227 208.056 620.046C208.981 617.866 208.951 615.331 207.92 612.778C207.743 612.341 207.246 612.13 206.809 612.306C206.372 612.483 206.161 612.98 206.337 613.417C207.224 615.611 207.21 617.672 206.485 619.38C205.76 621.087 204.287 622.529 202.093 623.415C201.656 623.592 201.445 624.089 201.622 624.526Z" fill="#E2063C"/>
<path d="M200.343 621.361C200.52 621.798 201.017 622.009 201.454 621.833C204.66 620.537 206.05 617.263 204.755 614.057C204.578 613.62 204.081 613.409 203.644 613.585C203.207 613.762 202.996 614.259 203.172 614.696C204.115 617.028 203.147 619.308 200.815 620.25C200.378 620.427 200.167 620.924 200.343 621.361Z" fill="#E2063C"/>
</g>
<g opacity="0.95">
<path d="M199.34 613.884C198.936 614.419 199.043 615.179 199.578 615.583C202.706 617.939 206.176 618.913 209.511 618.444C212.846 617.976 215.913 616.083 218.27 612.956C218.673 612.421 218.566 611.66 218.031 611.257C217.496 610.853 216.735 610.96 216.332 611.495C214.307 614.182 211.785 615.674 209.173 616.041C206.561 616.408 203.726 615.669 201.039 613.645C200.504 613.241 199.743 613.348 199.34 613.884Z" fill="#E2063C"/>
<path d="M202.26 610.007C201.857 610.543 201.964 611.303 202.499 611.707C206.426 614.666 211.435 613.962 214.394 610.035C214.797 609.5 214.69 608.739 214.155 608.336C213.62 607.933 212.859 608.039 212.456 608.575C210.303 611.431 206.816 611.921 203.96 609.769C203.424 609.365 202.664 609.472 202.26 610.007Z" fill="#E2063C"/>
</g>
<g opacity="0.8">
<path d="M223.184 784.181C222.861 784.493 222.852 785.008 223.164 785.331C224.988 787.219 227.183 788.228 229.44 788.267C231.698 788.307 233.927 787.375 235.815 785.552C236.138 785.24 236.147 784.725 235.835 784.402C235.523 784.079 235.008 784.07 234.685 784.382C233.063 785.948 231.237 786.672 229.469 786.641C227.701 786.61 225.901 785.823 224.335 784.201C224.022 783.878 223.508 783.869 223.184 784.181Z" fill="#E2063C"/>
<path d="M225.525 781.921C225.202 782.233 225.193 782.748 225.505 783.071C227.794 785.442 231.184 785.501 233.555 783.212C233.878 782.9 233.887 782.385 233.575 782.062C233.263 781.738 232.748 781.729 232.425 782.041C230.7 783.707 228.34 783.666 226.675 781.941C226.363 781.618 225.848 781.609 225.525 781.921Z" fill="#E2063C"/>
</g>
<g opacity="0.79">
<path d="M292.484 786.949C293.082 786.545 293.24 785.733 292.837 785.135C290.479 781.639 287.287 779.43 283.726 778.738C280.166 778.046 276.379 778.898 272.883 781.256C272.285 781.66 272.127 782.472 272.531 783.07C272.934 783.668 273.746 783.826 274.345 783.423C277.348 781.397 280.439 780.762 283.228 781.304C286.016 781.846 288.644 783.592 290.67 786.596C291.074 787.194 291.886 787.352 292.484 786.949Z" fill="#E2063C"/>
<path d="M288.151 789.871C288.749 789.468 288.907 788.656 288.504 788.057C285.543 783.668 280.196 782.628 275.806 785.589C275.208 785.993 275.05 786.805 275.453 787.403C275.857 788.001 276.669 788.159 277.267 787.756C280.461 785.602 284.183 786.326 286.337 789.519C286.741 790.117 287.553 790.275 288.151 789.871Z" fill="#E2063C"/>
</g>
<g opacity="0.77">
<path d="M256.325 868.783C255.773 869.375 255.805 870.303 256.398 870.856C259.859 874.084 263.908 875.693 267.977 875.551C272.045 875.409 275.972 873.521 279.2 870.059C279.752 869.467 279.72 868.539 279.127 867.987C278.535 867.434 277.607 867.467 277.054 868.059C274.281 871.033 271.061 872.508 267.874 872.619C264.688 872.731 261.372 871.484 258.398 868.71C257.806 868.158 256.878 868.19 256.325 868.783Z" fill="#E2063C"/>
<path d="M260.326 864.492C259.774 865.085 259.806 866.013 260.399 866.565C264.745 870.618 270.856 870.405 274.909 866.058C275.462 865.466 275.429 864.538 274.837 863.985C274.244 863.433 273.316 863.465 272.764 864.058C269.815 867.22 265.561 867.368 262.399 864.42C261.807 863.867 260.879 863.9 260.326 864.492Z" fill="#E2063C"/>
</g>
<g opacity="0.7">
<path d="M284.49 637.79C284.52 638.651 285.243 639.324 286.104 639.294C291.135 639.119 295.39 637.284 298.344 634.117C301.297 630.95 302.83 626.577 302.654 621.546C302.624 620.685 301.902 620.011 301.041 620.041C300.18 620.071 299.506 620.794 299.536 621.655C299.687 625.978 298.375 629.509 296.062 631.989C293.749 634.47 290.318 636.025 285.995 636.176C285.134 636.206 284.46 636.929 284.49 637.79Z" fill="#E2063C"/>
<path d="M284.272 631.553C284.303 632.415 285.025 633.088 285.886 633.058C292.204 632.837 296.639 628.081 296.418 621.764C296.388 620.903 295.666 620.229 294.805 620.259C293.944 620.289 293.27 621.011 293.3 621.873C293.461 626.468 290.373 629.78 285.777 629.94C284.916 629.97 284.242 630.692 284.272 631.553Z" fill="#E2063C"/>
</g>
<g opacity="0.87">
<path d="M303.212 601.947C302.909 602.626 303.215 603.422 303.894 603.725C307.865 605.492 311.861 605.679 315.35 604.34C318.84 603 321.685 600.187 323.452 596.217C323.755 595.538 323.449 594.742 322.77 594.439C322.09 594.137 321.294 594.442 320.992 595.122C319.473 598.533 317.118 600.776 314.385 601.825C311.652 602.874 308.401 602.783 304.99 601.264C304.311 600.962 303.514 601.267 303.212 601.947Z" fill="#E2063C"/>
<path d="M305.403 597.026C305.1 597.705 305.406 598.501 306.085 598.804C311.071 601.023 316.312 599.011 318.531 594.026C318.834 593.347 318.528 592.551 317.849 592.248C317.169 591.946 316.373 592.251 316.071 592.931C314.456 596.557 310.807 597.958 307.181 596.343C306.501 596.041 305.705 596.346 305.403 597.026Z" fill="#E2063C"/>
</g>
<g opacity="0.96">
<path d="M339.003 905.487C339.184 906.269 339.964 906.757 340.746 906.576C345.316 905.521 348.882 903.087 351.019 899.666C353.157 896.244 353.782 891.973 352.727 887.403C352.546 886.621 351.766 886.133 350.984 886.314C350.202 886.494 349.714 887.275 349.895 888.057C350.801 891.983 350.229 895.446 348.554 898.125C346.88 900.805 344.019 902.837 340.092 903.744C339.31 903.924 338.823 904.705 339.003 905.487Z" fill="#E2063C"/>
<path d="M337.696 899.823C337.876 900.605 338.656 901.092 339.439 900.912C345.177 899.587 348.387 894.449 347.063 888.711C346.882 887.929 346.102 887.441 345.32 887.621C344.538 887.802 344.05 888.582 344.23 889.364C345.194 893.539 342.959 897.116 338.785 898.08C338.003 898.26 337.515 899.04 337.696 899.823Z" fill="#E2063C"/>
</g>
<g opacity="0.79">
<path d="M400.554 661.092C401.134 660.715 401.299 659.938 400.922 659.358C398.719 655.966 395.695 653.794 392.292 653.071C388.889 652.348 385.243 653.101 381.851 655.304C381.271 655.681 381.106 656.457 381.483 657.038C381.86 657.618 382.636 657.783 383.216 657.406C386.131 655.514 389.106 654.956 391.771 655.523C394.436 656.089 396.927 657.809 398.82 660.723C399.197 661.304 399.973 661.469 400.554 661.092Z" fill="#E2063C"/>
<path d="M396.349 663.822C396.93 663.445 397.095 662.669 396.718 662.088C393.952 657.829 388.841 656.743 384.582 659.509C384.001 659.886 383.836 660.662 384.213 661.242C384.59 661.823 385.366 661.988 385.947 661.611C389.045 659.599 392.603 660.355 394.616 663.454C394.993 664.034 395.769 664.199 396.349 663.822Z" fill="#E2063C"/>
</g>
<g opacity="0.93">
<path d="M400.58 625.285C400.569 624.659 400.053 624.16 399.427 624.171C395.77 624.235 392.656 625.514 390.471 627.777C388.286 630.04 387.116 633.197 387.18 636.854C387.191 637.479 387.707 637.978 388.333 637.967C388.959 637.956 389.457 637.44 389.447 636.814C389.392 633.672 390.39 631.124 392.101 629.351C393.813 627.579 396.325 626.492 399.467 626.438C400.093 626.427 400.591 625.911 400.58 625.285Z" fill="#E2063C"/>
<path d="M400.659 629.817C400.649 629.192 400.132 628.693 399.507 628.704C394.915 628.784 391.633 632.183 391.713 636.775C391.724 637.4 392.24 637.899 392.866 637.888C393.492 637.877 393.99 637.361 393.979 636.735C393.921 633.395 396.206 631.029 399.546 630.97C400.172 630.959 400.67 630.443 400.659 629.817Z" fill="#E2063C"/>
</g>
<g opacity="0.97">
<path d="M422.923 812.339C423.387 812.151 423.611 811.622 423.424 811.158C422.328 808.445 420.48 806.486 418.163 805.503C415.847 804.519 413.154 804.551 410.441 805.647C409.976 805.835 409.752 806.363 409.94 806.827C410.127 807.292 410.656 807.516 411.12 807.328C413.451 806.387 415.64 806.402 417.455 807.172C419.269 807.942 420.801 809.507 421.743 811.837C421.93 812.302 422.459 812.526 422.923 812.339Z" fill="#E2063C"/>
<path d="M419.56 813.697C420.024 813.509 420.249 812.981 420.061 812.517C418.685 809.11 415.206 807.633 411.799 809.01C411.335 809.197 411.111 809.726 411.298 810.19C411.486 810.654 412.014 810.879 412.478 810.691C414.956 809.69 417.379 810.718 418.38 813.196C418.568 813.66 419.096 813.885 419.56 813.697Z" fill="#E2063C"/>
</g>
</g>
</svg>
