<svg width="16" height="16" viewBox="0 0 16 16" fill="none" xmlns="http://www.w3.org/2000/svg">
<path d="M7.98002 14.6667C11.6619 14.6667 14.6467 11.6819 14.6467 7.99999C14.6467 4.3181 11.6619 1.33333 7.98002 1.33333C4.29812 1.33333 1.31335 4.3181 1.31335 7.99999C1.31335 11.6819 4.29812 14.6667 7.98002 14.6667Z" fill="#FF033E"/>
<path d="M10.1667 7.53333H9.03335V4.89333C9.03335 4.28 8.70002 4.15333 8.29335 4.61333L8.00002 4.94667L5.52002 7.76667C5.18002 8.15333 5.32002 8.46667 5.83335 8.46667H6.96668V11.1067C6.96668 11.72 7.30002 11.8467 7.70669 11.3867L8.00002 11.0533L10.48 8.23333C10.82 7.84667 10.68 7.53333 10.1667 7.53333Z" fill="white"/>
</svg>
