<svg width="25" height="25" viewBox="0 0 25 25" fill="none" xmlns="http://www.w3.org/2000/svg">
<path d="M9.6355 9.42712C11.4897 10.1042 13.5105 10.1042 15.3647 9.42712" stroke="white" stroke-width="1.5" stroke-linecap="round" stroke-linejoin="round"/>
<path d="M17.5208 2.08337H7.47909C5.26033 2.08337 3.45825 3.89587 3.45825 6.10421V20.7813C3.45825 22.6563 4.802 23.448 6.44784 22.5417L11.5312 19.7188C12.0728 19.4167 12.9478 19.4167 13.4791 19.7188L18.5624 22.5417C20.2083 23.4584 21.552 22.6667 21.552 20.7813V6.10421C21.5416 3.89587 19.7395 2.08337 17.5208 2.08337Z" stroke="white" stroke-width="1.5" stroke-linecap="round" stroke-linejoin="round"/>
<path d="M17.5208 2.08337H7.47909C5.26033 2.08337 3.45825 3.89587 3.45825 6.10421V20.7813C3.45825 22.6563 4.802 23.448 6.44784 22.5417L11.5312 19.7188C12.0728 19.4167 12.9478 19.4167 13.4791 19.7188L18.5624 22.5417C20.2083 23.4584 21.552 22.6667 21.552 20.7813V6.10421C21.5416 3.89587 19.7395 2.08337 17.5208 2.08337Z" fill="white" stroke="white" stroke-width="1.5" stroke-linecap="round" stroke-linejoin="round"/>
</svg>
