<svg width="25" height="25" viewBox="0 0 25 25" fill="none" xmlns="http://www.w3.org/2000/svg">
<path d="M9.63544 9.42706C11.4896 10.1041 13.5104 10.1041 15.3646 9.42706" stroke="white" stroke-width="1.5" stroke-linecap="round" stroke-linejoin="round"/>
<path d="M17.5208 2.08331H7.47915C5.2604 2.08331 3.45831 3.89581 3.45831 6.10415V20.7812C3.45831 22.6562 4.80206 23.4479 6.4479 22.5416L11.5312 19.7187C12.0729 19.4166 12.9479 19.4166 13.4791 19.7187L18.5625 22.5416C20.2083 23.4583 21.5521 22.6666 21.5521 20.7812V6.10415C21.5416 3.89581 19.7396 2.08331 17.5208 2.08331Z" stroke="white" stroke-width="1.5" stroke-linecap="round" stroke-linejoin="round"/>
<path d="M17.5208 2.08331H7.47915C5.2604 2.08331 3.45831 3.89581 3.45831 6.10415V20.7812C3.45831 22.6562 4.80206 23.4479 6.4479 22.5416L11.5312 19.7187C12.0729 19.4166 12.9479 19.4166 13.4791 19.7187L18.5625 22.5416C20.2083 23.4583 21.5521 22.6666 21.5521 20.7812V6.10415C21.5416 3.89581 19.7396 2.08331 17.5208 2.08331Z" stroke="white" stroke-width="1.5" stroke-linecap="round" stroke-linejoin="round"/>
</svg>
