<svg width="18" height="4" viewBox="0 0 18 4" fill="none" xmlns="http://www.w3.org/2000/svg">
<path d="M2 4C0.895431 4 -3.91405e-08 3.10457 -8.74228e-08 2C-1.35705e-07 0.895431 0.89543 -3.91405e-08 2 -8.74228e-08C3.10457 -1.35705e-07 4 0.89543 4 2C4 3.10457 3.10457 4 2 4Z" fill="#BFC3C8"/>
<path d="M9 4C7.89543 4 7 3.10457 7 2C7 0.895431 7.89543 -3.91405e-08 9 -8.74228e-08C10.1046 -1.35705e-07 11 0.89543 11 2C11 3.10457 10.1046 4 9 4Z" fill="#BFC3C8"/>
<path d="M16 4C14.8954 4 14 3.10457 14 2C14 0.895431 14.8954 -3.91405e-08 16 -8.74228e-08C17.1046 -1.35705e-07 18 0.89543 18 2C18 3.10457 17.1046 4 16 4Z" fill="#BFC3C8"/>
</svg>
