<svg width="25" height="25" viewBox="0 0 25 25" fill="none" xmlns="http://www.w3.org/2000/svg">
<path d="M16.6666 9.36457V21.1979C16.6666 22.7083 15.5833 23.3437 14.2603 22.6146L10.1666 20.3333C9.7291 20.0937 9.02074 20.0937 8.58324 20.3333L4.4895 22.6146C3.16658 23.3437 2.08325 22.7083 2.08325 21.1979V9.36457C2.08325 7.58332 3.54157 6.125 5.32282 6.125H13.427C15.2083 6.125 16.6666 7.58332 16.6666 9.36457Z" fill="#FF033E"/>
<path d="M13.427 6.125H5.32282C3.54157 6.125 2.08325 7.58332 2.08325 9.36457V21.1979C2.08325 22.7083 3.16658 23.3542 4.4895 22.6146L8.58324 20.3333C9.02074 20.0937 9.72908 20.0937 10.1562 20.3333L14.2499 22.6146C15.5728 23.3542 16.6562 22.7083 16.6562 21.1979V9.36457C16.6666 7.58332 15.2083 6.125 13.427 6.125Z" stroke="white" stroke-width="1.5" stroke-linecap="round" stroke-linejoin="round"/>
<path d="M22.5833 5.23957V17.0729C22.5833 18.5833 21.5 19.2187 20.1771 18.4896L16.3333 16.3437V9.28124C16.3333 7.49999 14.875 6.04167 13.0938 6.04167H8V5.23957C8 3.45832 9.45832 2 11.2396 2H19.3438C21.125 2 22.5833 3.45832 22.5833 5.23957Z" fill="#FF033E"/>
</svg>
