<svg width="25" height="25" viewBox="0 0 25 25" fill="none" xmlns="http://www.w3.org/2000/svg">
<path d="M13.4271 6.125H5.32294C3.54169 6.125 2.08337 7.58332 2.08337 9.36457V21.1979C2.08337 22.7083 3.1667 23.3542 4.48962 22.6146L8.58336 20.3333C9.02086 20.0937 9.72921 20.0937 10.1563 20.3333L14.25 22.6146C15.5729 23.3542 16.6563 22.7083 16.6563 21.1979V9.36457C16.6667 7.58332 15.2084 6.125 13.4271 6.125Z" stroke="#BFC3C8" stroke-width="1.5" stroke-linecap="round" stroke-linejoin="round"/>
<path d="M16.6667 9.36457V21.1979C16.6667 22.7083 15.5834 23.3437 14.2605 22.6146L10.1667 20.3333C9.72922 20.0937 9.02086 20.0937 8.58336 20.3333L4.48962 22.6146C3.1667 23.3437 2.08337 22.7083 2.08337 21.1979V9.36457C2.08337 7.58332 3.54169 6.125 5.32294 6.125H13.4271C15.2084 6.125 16.6667 7.58332 16.6667 9.36457Z" stroke="#BFC3C8" stroke-width="1.5" stroke-linecap="round" stroke-linejoin="round"/>
<path d="M22.9167 5.32291V17.1563C22.9167 18.6667 21.8334 19.3021 20.5105 18.5729L16.6667 16.4271V9.36458C16.6667 7.58333 15.2084 6.12502 13.4271 6.12502H8.33337V5.32291C8.33337 3.54166 9.79169 2.08334 11.5729 2.08334H19.6771C21.4584 2.08334 22.9167 3.54166 22.9167 5.32291Z" stroke="#BFC3C8" stroke-width="1.5" stroke-linecap="round" stroke-linejoin="round"/>
</svg>
